<svg width="32" height="32" viewBox="0 0 32 32" fill="none" xmlns="http://www.w3.org/2000/svg">
<path d="M21.4285 24.189C20.5605 24.189 19.7695 24.0735 19.0555 23.8425C18.3415 23.6115 17.771 23.2335 17.344 22.7085C16.924 22.1765 16.714 21.4765 16.714 20.6085C16.714 19.7405 16.9555 19.0405 17.4385 18.5085C17.9285 17.9695 18.576 17.5775 19.381 17.3325C20.186 17.0805 21.068 16.9545 22.027 16.9545C22.419 16.9545 22.8005 16.9825 23.1715 17.0385C23.5425 17.0945 23.868 17.1645 24.148 17.2485C24.428 17.3255 24.624 17.399 24.736 17.469C24.722 17.266 24.6835 17.056 24.6205 16.839C24.5575 16.622 24.463 16.4365 24.337 16.2825C24.113 15.9395 23.7945 15.6525 23.3815 15.4215C22.9755 15.1905 22.447 15.075 21.796 15.075C21.131 15.075 20.5535 15.222 20.0635 15.516C19.5735 15.81 19.206 16.1495 18.961 16.5345L16.6825 15.0645C16.9975 14.6165 17.4175 14.221 17.9425 13.878C18.4675 13.535 19.066 13.269 19.738 13.08C20.41 12.884 21.124 12.786 21.88 12.786C23.098 12.786 24.092 12.996 24.862 13.416C25.632 13.836 26.199 14.41 26.563 15.138C26.738 15.495 26.8815 15.887 26.9935 16.314C27.1055 16.741 27.179 17.245 27.214 17.826C27.235 18.365 27.2525 18.8515 27.2665 19.2855C27.2805 19.7195 27.298 20.115 27.319 20.472C27.333 20.983 27.3925 21.3155 27.4975 21.4695C27.6095 21.6165 27.76 21.69 27.949 21.69C28.152 21.69 28.327 21.6235 28.474 21.4905C28.621 21.3575 28.712 21.1755 28.747 20.9445L29.8075 22.7085C29.7445 23.1215 29.531 23.454 29.167 23.706C28.803 23.951 28.3585 24.0735 27.8335 24.0735C27.4345 24.0735 27.067 24.0035 26.731 23.8635C26.395 23.7165 26.1185 23.5275 25.9015 23.2965C25.6915 23.0585 25.569 22.7995 25.534 22.5195C25.408 22.7785 25.1595 23.0375 24.7885 23.2965C24.4175 23.5555 23.9485 23.769 23.3815 23.937C22.8145 24.105 22.1635 24.189 21.4285 24.189ZM22.0165 21.9945C22.3875 21.9945 22.762 21.9385 23.14 21.8265C23.518 21.7145 23.861 21.5675 24.169 21.3855C24.484 21.2035 24.7325 21.0145 24.9145 20.8185C24.9005 20.5245 24.89 20.2445 24.883 19.9785C24.883 19.7125 24.8865 19.478 24.8935 19.275C24.7255 19.212 24.4 19.1385 23.917 19.0545C23.441 18.9635 22.9265 18.918 22.3735 18.918C21.8835 18.918 21.4285 18.9775 21.0085 19.0965C20.5955 19.2085 20.2595 19.38 20.0005 19.611C19.7485 19.835 19.6225 20.1185 19.6225 20.4615C19.6225 20.8535 19.7205 21.1615 19.9165 21.3855C20.1195 21.6095 20.3995 21.767 20.7565 21.858C21.1205 21.949 21.5405 21.9945 22.0165 21.9945Z" fill="#1E1E1E"/>
<path d="M10.942 28.884C10.126 28.884 9.52533 28.68 9.14 28.272C8.75467 27.864 8.562 27.1953 8.562 26.266C8.562 25.0193 8.77733 22.8093 9.208 19.636C9.66133 16.4627 10.4093 11.7593 11.452 5.526L15.532 6.308L14.75 11.17C14.0927 15.3407 13.594 18.5253 13.254 20.724C12.9367 22.9227 12.778 24.396 12.778 25.144C12.778 26.3907 13.0387 27.3427 13.56 28C12.6987 28.5893 11.826 28.884 10.942 28.884ZM19.102 8.076C18.4447 8.076 17.7647 8.042 17.062 7.974C16.382 7.8833 15.6227 7.77 14.784 7.634C14.036 7.5207 13.254 7.4187 12.438 7.328C11.6447 7.2373 10.8967 7.192 10.194 7.192L4.72 8.008C4.49333 7.5773 4.38 7.022 4.38 6.342C4.38 5.3447 4.66333 4.6533 5.23 4.268C5.79667 3.8827 6.64667 3.69 7.78 3.69C8.41467 3.69 9.11733 3.7353 9.888 3.826C10.6813 3.9167 11.4407 4.0187 12.166 4.132C13.118 4.2907 13.934 4.4153 14.614 4.506C15.294 4.574 15.9853 4.608 16.688 4.608L22.162 3.758C22.366 4.166 22.468 4.7213 22.468 5.424C22.468 6.2627 22.1733 6.92 21.584 7.396C20.9947 7.8493 20.1673 8.076 19.102 8.076Z" fill="#F97316"/>
</svg>
